<svg width="512" height="512" viewBox="0 0 512 512" fill="none"
  xmlns="http://www.w3.org/2000/svg">
  <g clip-path="url(#clip0)">
    <circle cx="256" cy="256" r="256" fill="url(#paint0_linear)"/>
    <path d="M347.766 118.353C335.725 118.353 324.013 120.477 313.314 124.554C300.716 109.377 279.37 100 256.021 100C232.672 100 211.326 109.377 198.728 124.554C188.029 120.477 176.317 118.353 164.277 118.353C120.013 118.353 84 147.17 84 182.588C84 207.539 102.131 230.102 129.872 240.637V338.588H382.17V240.637C409.912 230.102 428.043 207.538 428.043 182.588C428.043 147.17 392.031 118.353 347.766 118.353ZM210.149 311.059H187.213V256H210.149V311.059ZM267.489 311.059H244.553V256H267.489V311.059ZM324.83 311.059H301.894V256H324.83V311.059Z" fill="white"/>
    <path d="M347.766 118.353C335.725 118.353 324.013 120.477 313.314 124.554C300.716 109.377 279.37 100 256.021 100C232.672 100 211.326 109.377 198.728 124.554C188.029 120.477 176.317 118.353 164.277 118.353C120.013 118.353 84 147.17 84 182.588C84 207.539 102.131 230.102 129.872 240.637V338.588H382.17V240.637C409.912 230.102 428.043 207.538 428.043 182.588C428.043 147.17 392.031 118.353 347.766 118.353ZM210.149 311.059H187.213V256H210.149V311.059ZM267.489 311.059H244.553V256H267.489V311.059ZM324.83 311.059H301.894V256H324.83V311.059Z" fill="url(#paint1_linear)"/>
    <path d="M129.872 356.941H382.17V412H129.872V356.941Z" fill="white"/>
    <path d="M129.872 356.941H382.17V412H129.872V356.941Z" fill="url(#paint2_linear)"/>
  </g>
  <defs>
    <linearGradient id="paint0_linear" x1="256" y1="0" x2="256" y2="512" gradientUnits="userSpaceOnUse">
      <stop stop-color="#686868"/>
      <stop offset="1"/>
    </linearGradient>
    <linearGradient id="paint1_linear" x1="256.021" y1="100" x2="256.021" y2="338.588" gradientUnits="userSpaceOnUse">
      <stop stop-color="white"/>
      <stop offset="1" stop-color="#BCBCBC"/>
    </linearGradient>
    <linearGradient id="paint2_linear" x1="256.021" y1="356.941" x2="256.021" y2="412" gradientUnits="userSpaceOnUse">
      <stop stop-color="white"/>
      <stop offset="1" stop-color="#BCBCBC"/>
    </linearGradient>
    <clipPath id="clip0">
      <rect width="512" height="512" fill="white"/>
    </clipPath>
  </defs>
</svg>
