<svg width="512" height="512" viewBox="0 0 512 512" fill="none" xmlns="http://www.w3.org/2000/svg">
<g clip-path="url(#clip0_1625_8)">
<rect width="512" height="512" fill="url(#paint0_linear_1625_8)"/>
<g filter="url(#filter0_d_1625_8)">
<path d="M333.189 179.359C333.189 221.531 301.09 255.718 261.494 255.718C221.898 255.718 189.799 221.531 189.799 179.359C189.799 137.187 221.898 103 261.494 103C301.09 103 333.189 137.187 333.189 179.359Z" fill="#D9D9D9"/>
<path d="M242.39 218.313C242.39 260.485 210.291 294.673 170.695 294.673C131.099 294.673 99 260.485 99 218.313C99 176.141 131.099 141.954 170.695 141.954C210.291 141.954 242.39 176.141 242.39 218.313Z" fill="#D9D9D9"/>
<path d="M412.457 215.959C412.457 258.131 380.358 292.318 340.761 292.318C301.165 292.318 269.066 258.131 269.066 215.959C269.066 173.787 301.165 139.599 340.761 139.599C380.358 139.599 412.457 173.787 412.457 215.959Z" fill="#D9D9D9"/>
<rect x="151.378" y="232.955" width="209.512" height="133.178" fill="#D9D9D9"/>
<ellipse cx="256.134" cy="366.54" rx="104.756" ry="41.8213" fill="#D9D9D9"/>
<ellipse cx="256" cy="362" rx="100" ry="40" fill="black" fill-opacity="0.2"/>
</g>
</g>
<defs>
<filter id="filter0_d_1625_8" x="-101" y="-76" width="713.457" height="705.361" filterUnits="userSpaceOnUse" color-interpolation-filters="sRGB">
<feFlood flood-opacity="0" result="BackgroundImageFix"/>
<feColorMatrix in="SourceAlpha" type="matrix" values="0 0 0 0 0 0 0 0 0 0 0 0 0 0 0 0 0 0 127 0" result="hardAlpha"/>
<feOffset dy="21"/>
<feGaussianBlur stdDeviation="100"/>
<feComposite in2="hardAlpha" operator="out"/>
<feColorMatrix type="matrix" values="0 0 0 0 0 0 0 0 0 0 0 0 0 0 0 0 0 0 0.25 0"/>
<feBlend mode="normal" in2="BackgroundImageFix" result="effect1_dropShadow_1625_8"/>
<feBlend mode="normal" in="SourceGraphic" in2="effect1_dropShadow_1625_8" result="shape"/>
</filter>
<linearGradient id="paint0_linear_1625_8" x1="256" y1="0" x2="256" y2="512" gradientUnits="userSpaceOnUse">
<stop stop-color="#567DB5"/>
<stop offset="1" stop-color="#1F2937"/>
</linearGradient>
<clipPath id="clip0_1625_8">
<rect width="512" height="512" rx="110" fill="white"/>
</clipPath>
</defs>
</svg>
